<svg width="73" height="73" viewBox="0 0 73 73" fill="none" xmlns="http://www.w3.org/2000/svg">
<circle cx="36.5" cy="36.5" r="36.5" fill="#FF9900"/>
<path d="M35.928 52.48C33.336 52.48 30.824 52.112 28.392 51.376C25.992 50.64 24.088 49.664 22.68 48.448L24.84 43.6C26.216 44.688 27.896 45.584 29.88 46.288C31.896 46.96 33.912 47.296 35.928 47.296C38.424 47.296 40.28 46.896 41.496 46.096C42.744 45.296 43.368 44.24 43.368 42.928C43.368 41.968 43.016 41.184 42.312 40.576C41.64 39.936 40.776 39.44 39.72 39.088C38.664 38.736 37.224 38.336 35.4 37.888C32.84 37.28 30.76 36.672 29.16 36.064C27.592 35.456 26.232 34.512 25.08 33.232C23.96 31.92 23.4 30.16 23.4 27.952C23.4 26.096 23.896 24.416 24.888 22.912C25.912 21.376 27.432 20.16 29.448 19.264C31.496 18.368 33.992 17.92 36.936 17.92C38.984 17.92 41 18.176 42.984 18.688C44.968 19.2 46.68 19.936 48.12 20.896L46.152 25.744C44.68 24.88 43.144 24.224 41.544 23.776C39.944 23.328 38.392 23.104 36.888 23.104C34.424 23.104 32.584 23.52 31.368 24.352C30.184 25.184 29.592 26.288 29.592 27.664C29.592 28.624 29.928 29.408 30.6 30.016C31.304 30.624 32.184 31.104 33.24 31.456C34.296 31.808 35.736 32.208 37.56 32.656C40.056 33.232 42.104 33.84 43.704 34.48C45.304 35.088 46.664 36.032 47.784 37.312C48.936 38.592 49.512 40.32 49.512 42.496C49.512 44.352 49 46.032 47.976 47.536C46.984 49.04 45.464 50.24 43.416 51.136C41.368 52.032 38.872 52.48 35.928 52.48ZM35.16 62.944C33.432 62.944 31.96 62.608 30.744 61.936L31.848 59.104C32.84 59.616 33.928 59.872 35.112 59.872C36.808 59.872 37.656 59.296 37.656 58.144C37.656 57.664 37.448 57.28 37.032 56.992C36.616 56.704 35.976 56.56 35.112 56.56H33.624L34.92 51.664H38.184L37.512 54.352C38.888 54.512 39.928 54.944 40.632 55.648C41.336 56.384 41.688 57.296 41.688 58.384C41.688 59.76 41.096 60.864 39.912 61.696C38.728 62.528 37.144 62.944 35.16 62.944Z" fill="white"/>
</svg>
